<svg width="17" height="19" viewBox="0 0 17 19" fill="none" xmlns="http://www.w3.org/2000/svg">
<path d="M14.5833 19H2.41666C1.86437 19 1.41666 18.5523 1.41666 18V5.4706C1.41666 4.91831 1.86437 4.4706 2.41665 4.4706H14.5833C15.1356 4.4706 15.5833 4.91831 15.5833 5.4706V18C15.5833 18.5523 15.1356 19 14.5833 19Z" fill="#131112"/>
<path d="M16.0686 3.72549H0.931372C0.416989 3.72549 0 3.3085 0 2.79412C0 2.27973 0.416989 1.86274 0.931372 1.86274L16.0686 1.86274C16.583 1.86274 17 2.27973 17 2.79412C17 3.3085 16.583 3.72549 16.0686 3.72549Z" fill="#131112"/>
<path d="M9.20833 0.781861V0.708334C9.20833 0.317132 8.89119 0 8.49999 0C8.10879 0 7.79166 0.317132 7.79166 0.708334V0.781861C7.79166 1.17306 8.10879 1.4902 8.49999 1.4902C8.89119 1.4902 9.20833 1.17306 9.20833 0.781861Z" fill="#131112"/>
</svg>
