<svg width="34" height="34" viewBox="0 0 34 34" fill="none" xmlns="http://www.w3.org/2000/svg">
<path d="M11.9 1C11.9 0.447716 12.3477 0 12.9 0H21.1C21.6523 0 22.1 0.447715 22.1 1V10.9C22.1 11.4523 22.5477 11.9 23.1 11.9H33C33.5523 11.9 34 12.3477 34 12.9V21.1C34 21.6523 33.5523 22.1 33 22.1H23.1C22.5477 22.1 22.1 22.5477 22.1 23.1V33C22.1 33.5523 21.6523 34 21.1 34H12.9C12.3477 34 11.9 33.5523 11.9 33V23.1C11.9 22.5477 11.4523 22.1 10.9 22.1H1C0.447716 22.1 0 21.6523 0 21.1V12.9C0 12.3477 0.447715 11.9 1 11.9H10.9C11.4523 11.9 11.9 11.4523 11.9 10.9V1Z" fill="#131112"/>
</svg>
